<svg xmlns="http://www.w3.org/2000/svg" xmlns:xlink="http://www.w3.org/1999/xlink" zoomAndPan="magnify" preserveAspectRatio="xMidYMid meet" version="1.0" viewBox="76.69 79.85 720.85 328.17"><defs><g/><clipPath id="40800ce86b"><path d="M 159 307 L 273 307 L 273 405.558594 L 159 405.558594 Z M 159 307 " clip-rule="nonzero"/></clipPath><clipPath id="abcdc4e11c"><path d="M 259 91.398438 L 408 91.398438 L 408 221 L 259 221 Z M 259 91.398438 " clip-rule="nonzero"/></clipPath></defs><path fill="#f7941e" d="M 146.183594 252.878906 L 169.390625 293.136719 L 146.183594 333.511719 L 99.890625 333.511719 L 76.6875 293.144531 L 99.890625 252.882812 Z M 146.183594 252.878906 " fill-opacity="1" fill-rule="nonzero"/><path fill="#8dc63f" d="M 244.914062 180.382812 L 273.152344 229.445312 L 244.914062 278.511719 L 188.660156 278.511719 L 160.417969 229.441406 L 188.65625 180.378906 Z M 244.914062 180.382812 " fill-opacity="1" fill-rule="nonzero"/><g clip-path="url(#40800ce86b)"><path fill="#fdb913" d="M 243.925781 307.445312 L 272.054688 356.511719 L 243.925781 405.574219 L 187.558594 405.574219 L 159.320312 356.511719 L 187.558594 307.445312 Z M 243.925781 307.445312 " fill-opacity="1" fill-rule="nonzero"/></g><g clip-path="url(#abcdc4e11c)"><path fill="#25bdbe" d="M 370.777344 91.386719 L 407.882812 155.960938 L 370.777344 220.652344 L 296.464844 220.652344 L 259.363281 155.960938 L 296.464844 91.386719 Z M 370.777344 91.386719 " fill-opacity="1" fill-rule="nonzero"/></g><g fill="#000000" fill-opacity="1"><g transform="translate(432.100991, 127.284518)"><g><path d="M 15.25 -40.5 L 0.328125 -40.5 L 0.328125 -47.4375 L 38.484375 -47.4375 L 38.484375 -40.5 L 23.5625 -40.5 L 23.5625 0 L 15.25 0 Z M 15.25 -40.5 "/></g></g></g><g fill="#000000" fill-opacity="1"><g transform="translate(470.904154, 127.284518)"><g><path d="M 12.171875 -30.296875 C 13.171875 -32.128906 14.578125 -33.535156 16.390625 -34.515625 C 18.203125 -35.492188 20.351562 -35.984375 22.84375 -35.984375 C 24.976562 -35.984375 26.796875 -35.65625 28.296875 -35 C 29.804688 -34.351562 31.039062 -33.414062 32 -32.1875 C 32.957031 -30.96875 33.664062 -29.507812 34.125 -27.8125 C 34.582031 -26.113281 34.8125 -24.21875 34.8125 -22.125 L 34.8125 0 L 27.03125 0 L 27.03125 -20.21875 C 27.03125 -21.394531 26.960938 -22.550781 26.828125 -23.6875 C 26.703125 -24.820312 26.410156 -25.835938 25.953125 -26.734375 C 25.492188 -27.628906 24.816406 -28.335938 23.921875 -28.859375 C 23.023438 -29.378906 21.832031 -29.640625 20.34375 -29.640625 C 18.863281 -29.640625 17.597656 -29.363281 16.546875 -28.8125 C 15.503906 -28.269531 14.65625 -27.519531 14 -26.5625 C 13.34375 -25.601562 12.875 -24.445312 12.59375 -23.09375 C 12.3125 -21.75 12.171875 -20.289062 12.171875 -18.71875 L 12.171875 0 L 4.390625 0 L 4.390625 -47.4375 L 12.171875 -47.4375 Z M 12.171875 -30.296875 "/></g></g></g><g fill="#000000" fill-opacity="1"><g transform="translate(509.445588, 127.284518)"><g><path d="M 19.625 0.84375 C 16.75 0.84375 14.207031 0.34375 12 -0.65625 C 9.800781 -1.65625 7.96875 -3.003906 6.5 -4.703125 C 5.039062 -6.410156 3.929688 -8.394531 3.171875 -10.65625 C 2.410156 -12.925781 2.03125 -15.328125 2.03125 -17.859375 C 2.03125 -20.523438 2.441406 -22.957031 3.265625 -25.15625 C 4.097656 -27.363281 5.253906 -29.273438 6.734375 -30.890625 C 8.222656 -32.503906 10.015625 -33.753906 12.109375 -34.640625 C 14.203125 -35.535156 16.535156 -35.984375 19.109375 -35.984375 C 21.859375 -35.984375 24.300781 -35.457031 26.4375 -34.40625 C 28.570312 -33.363281 30.359375 -31.925781 31.796875 -30.09375 C 33.242188 -28.269531 34.316406 -26.101562 35.015625 -23.59375 C 35.710938 -21.082031 35.972656 -18.34375 35.796875 -15.375 L 9.953125 -15.375 C 9.992188 -13.976562 10.265625 -12.679688 10.765625 -11.484375 C 11.265625 -10.285156 11.925781 -9.25 12.75 -8.375 C 13.582031 -7.5 14.554688 -6.820312 15.671875 -6.34375 C 16.785156 -5.863281 17.992188 -5.625 19.296875 -5.625 C 23.535156 -5.625 26.351562 -7.257812 27.75 -10.53125 L 35.40625 -10.53125 C 35.007812 -9.132812 34.394531 -7.75 33.5625 -6.375 C 32.738281 -5 31.679688 -3.773438 30.390625 -2.703125 C 29.109375 -1.640625 27.570312 -0.78125 25.78125 -0.125 C 23.988281 0.519531 21.9375 0.84375 19.625 0.84375 Z M 19.109375 -29.90625 C 18.015625 -29.90625 16.929688 -29.726562 15.859375 -29.375 C 14.796875 -29.03125 13.835938 -28.5 12.984375 -27.78125 C 12.140625 -27.0625 11.429688 -26.144531 10.859375 -25.03125 C 10.296875 -23.914062 9.992188 -22.597656 9.953125 -21.078125 L 27.875 -21.078125 C 27.832031 -22.421875 27.570312 -23.648438 27.09375 -24.765625 C 26.613281 -25.878906 25.976562 -26.804688 25.1875 -27.546875 C 24.40625 -28.285156 23.488281 -28.863281 22.4375 -29.28125 C 21.394531 -29.695312 20.285156 -29.90625 19.109375 -29.90625 Z M 19.109375 -29.90625 "/></g></g></g><g fill="#000000" fill-opacity="1"><g transform="translate(432.100991, 217.044697)"><g/></g></g><g fill="#000000" fill-opacity="1"><g transform="translate(447.134068, 217.044697)"><g><path d="M 35.59375 -23.75 C 35.59375 -27.5 35.066406 -30.5 34.015625 -32.75 C 32.972656 -35 31.585938 -36.710938 29.859375 -37.890625 C 28.140625 -39.066406 26.191406 -39.835938 24.015625 -40.203125 C 21.835938 -40.578125 19.613281 -40.765625 17.34375 -40.765625 L 13.09375 -40.765625 L 13.09375 -6.671875 L 17.34375 -6.671875 C 19.613281 -6.671875 21.835938 -6.851562 24.015625 -7.21875 C 26.191406 -7.59375 28.140625 -8.378906 29.859375 -9.578125 C 31.585938 -10.785156 32.972656 -12.507812 34.015625 -14.75 C 35.066406 -17 35.59375 -20 35.59375 -23.75 Z M 17.734375 -47.4375 C 21.484375 -47.4375 24.972656 -47.066406 28.203125 -46.328125 C 31.429688 -45.585938 34.234375 -44.320312 36.609375 -42.53125 C 38.984375 -40.738281 40.847656 -38.316406 42.203125 -35.265625 C 43.554688 -32.210938 44.234375 -28.375 44.234375 -23.75 C 44.234375 -19.125 43.554688 -15.285156 42.203125 -12.234375 C 40.847656 -9.179688 38.984375 -6.75 36.609375 -4.9375 C 34.234375 -3.125 31.429688 -1.847656 28.203125 -1.109375 C 24.972656 -0.367188 21.484375 0 17.734375 0 L 4.78125 0 L 4.78125 -47.4375 Z M 17.734375 -47.4375 "/></g></g></g><g fill="#000000" fill-opacity="1"><g transform="translate(494.182071, 217.044697)"><g><path d="M 12.171875 -47.4375 L 12.171875 -39.59375 L 4.390625 -39.59375 L 4.390625 -47.4375 Z M 12.171875 -35.203125 L 12.171875 0 L 4.390625 0 L 4.390625 -35.203125 Z M 12.171875 -35.203125 "/></g></g></g><g fill="#000000" fill-opacity="1"><g transform="translate(510.737237, 217.044697)"><g><path d="M 27.484375 -35.203125 L 35.265625 -35.203125 L 35.265625 -3.53125 C 35.265625 2.226562 33.835938 6.367188 30.984375 8.890625 C 28.128906 11.421875 23.972656 12.6875 18.515625 12.6875 C 16.597656 12.6875 14.785156 12.488281 13.078125 12.09375 C 11.378906 11.707031 9.863281 11.078125 8.53125 10.203125 C 7.207031 9.335938 6.109375 8.21875 5.234375 6.84375 C 4.359375 5.46875 3.769531 3.816406 3.46875 1.890625 L 11.1875 1.890625 C 11.539062 3.554688 12.296875 4.75 13.453125 5.46875 C 14.609375 6.1875 16.363281 6.546875 18.71875 6.546875 C 20.457031 6.546875 21.894531 6.316406 23.03125 5.859375 C 24.164062 5.398438 25.0625 4.773438 25.71875 3.984375 C 26.375 3.203125 26.832031 2.296875 27.09375 1.265625 C 27.351562 0.242188 27.484375 -0.832031 27.484375 -1.96875 L 27.484375 -6.078125 C 26.429688 -4.335938 25.007812 -2.988281 23.21875 -2.03125 C 21.4375 -1.070312 19.367188 -0.59375 17.015625 -0.59375 C 14.878906 -0.59375 12.882812 -0.992188 11.03125 -1.796875 C 9.175781 -2.609375 7.570312 -3.785156 6.21875 -5.328125 C 4.863281 -6.878906 3.800781 -8.742188 3.03125 -10.921875 C 2.269531 -13.109375 1.890625 -15.578125 1.890625 -18.328125 C 1.890625 -21.066406 2.269531 -23.523438 3.03125 -25.703125 C 3.800781 -27.890625 4.863281 -29.742188 6.21875 -31.265625 C 7.570312 -32.796875 9.175781 -33.960938 11.03125 -34.765625 C 12.882812 -35.578125 14.878906 -35.984375 17.015625 -35.984375 C 19.367188 -35.984375 21.4375 -35.503906 23.21875 -34.546875 C 25.007812 -33.585938 26.429688 -32.238281 27.484375 -30.5 Z M 27.8125 -18.328125 C 27.8125 -20.285156 27.570312 -21.984375 27.09375 -23.421875 C 26.613281 -24.867188 25.96875 -26.0625 25.15625 -27 C 24.351562 -27.9375 23.394531 -28.632812 22.28125 -29.09375 C 21.164062 -29.550781 19.976562 -29.78125 18.71875 -29.78125 C 15.96875 -29.78125 13.828125 -28.753906 12.296875 -26.703125 C 10.773438 -24.648438 10.015625 -21.859375 10.015625 -18.328125 C 10.015625 -14.703125 10.773438 -11.863281 12.296875 -9.8125 C 13.828125 -7.757812 15.96875 -6.734375 18.71875 -6.734375 C 19.976562 -6.734375 21.164062 -6.960938 22.28125 -7.421875 C 23.394531 -7.878906 24.351562 -8.585938 25.15625 -9.546875 C 25.96875 -10.515625 26.613281 -11.726562 27.09375 -13.1875 C 27.570312 -14.644531 27.8125 -16.359375 27.8125 -18.328125 Z M 27.8125 -18.328125 "/></g></g></g><g fill="#000000" fill-opacity="1"><g transform="translate(550.325626, 217.044697)"><g><path d="M 12.171875 -47.4375 L 12.171875 -39.59375 L 4.390625 -39.59375 L 4.390625 -47.4375 Z M 12.171875 -35.203125 L 12.171875 0 L 4.390625 0 L 4.390625 -35.203125 Z M 12.171875 -35.203125 "/></g></g></g><g fill="#000000" fill-opacity="1"><g transform="translate(566.880792, 217.044697)"><g><path d="M 5.5 -44.5 L 13.28125 -44.5 L 13.28125 -35.203125 L 20.34375 -35.203125 L 20.34375 -29.578125 L 13.28125 -29.578125 L 13.28125 -10.40625 C 13.28125 -8.613281 13.5625 -7.421875 14.125 -6.828125 C 14.695312 -6.242188 15.8125 -5.953125 17.46875 -5.953125 L 20.28125 -5.953125 L 20.28125 0 L 14.53125 0 C 12.65625 0 11.128906 -0.140625 9.953125 -0.421875 C 8.773438 -0.703125 7.859375 -1.191406 7.203125 -1.890625 C 6.546875 -2.585938 6.097656 -3.535156 5.859375 -4.734375 C 5.617188 -5.941406 5.5 -7.441406 5.5 -9.234375 L 5.5 -29.578125 L 0.265625 -29.578125 L 0.265625 -35.203125 L 5.5 -35.203125 Z M 5.5 -44.5 "/></g></g></g><g fill="#000000" fill-opacity="1"><g transform="translate(589.128831, 217.044697)"><g><path d="M 26.171875 -16.5625 C 23.378906 -16.289062 21 -15.976562 19.03125 -15.625 C 17.070312 -15.28125 15.457031 -14.847656 14.1875 -14.328125 C 12.925781 -13.804688 12 -13.1875 11.40625 -12.46875 C 10.820312 -11.75 10.53125 -10.882812 10.53125 -9.875 C 10.53125 -8.351562 11.117188 -7.15625 12.296875 -6.28125 C 13.472656 -5.40625 15.046875 -4.96875 17.015625 -4.96875 C 19.890625 -4.96875 22.132812 -5.765625 23.75 -7.359375 C 25.363281 -8.953125 26.171875 -11.601562 26.171875 -15.3125 Z M 18.78125 -36.25 C 20.957031 -36.25 22.972656 -35.988281 24.828125 -35.46875 C 26.679688 -34.945312 28.285156 -34.09375 29.640625 -32.90625 C 30.992188 -31.726562 32.03125 -30.179688 32.75 -28.265625 C 33.46875 -26.347656 33.804688 -23.992188 33.765625 -21.203125 C 33.765625 -20.765625 33.753906 -20.1875 33.734375 -19.46875 C 33.710938 -18.75 33.703125 -17.972656 33.703125 -17.140625 C 33.703125 -16.316406 33.691406 -15.457031 33.671875 -14.5625 C 33.648438 -13.664062 33.640625 -12.828125 33.640625 -12.046875 C 33.640625 -9.816406 33.722656 -7.617188 33.890625 -5.453125 C 34.066406 -3.296875 34.332031 -1.476562 34.6875 0 L 27.546875 0 C 27.421875 -0.738281 27.300781 -1.457031 27.1875 -2.15625 C 27.082031 -2.851562 26.984375 -3.8125 26.890625 -5.03125 C 25.804688 -3.070312 24.257812 -1.601562 22.25 -0.625 C 20.238281 0.351562 17.925781 0.84375 15.3125 0.84375 C 13.394531 0.84375 11.640625 0.59375 10.046875 0.09375 C 8.453125 -0.40625 7.078125 -1.113281 5.921875 -2.03125 C 4.765625 -2.945312 3.867188 -4.046875 3.234375 -5.328125 C 2.609375 -6.617188 2.296875 -8.070312 2.296875 -9.6875 C 2.296875 -11.863281 2.925781 -13.671875 4.1875 -15.109375 C 5.445312 -16.554688 7.15625 -17.738281 9.3125 -18.65625 C 11.476562 -19.570312 13.988281 -20.269531 16.84375 -20.75 C 19.707031 -21.226562 22.753906 -21.640625 25.984375 -21.984375 L 25.984375 -22.84375 C 25.984375 -24.320312 25.785156 -25.550781 25.390625 -26.53125 C 24.992188 -27.507812 24.457031 -28.296875 23.78125 -28.890625 C 23.101562 -29.484375 22.304688 -29.898438 21.390625 -30.140625 C 20.484375 -30.378906 19.484375 -30.5 18.390625 -30.5 C 16.378906 -30.5 14.695312 -29.972656 13.34375 -28.921875 C 12 -27.878906 11.28125 -26.285156 11.1875 -24.140625 L 3.53125 -24.140625 C 3.664062 -25.929688 4.125 -27.566406 4.90625 -29.046875 C 5.6875 -30.535156 6.742188 -31.8125 8.078125 -32.875 C 9.410156 -33.945312 10.984375 -34.773438 12.796875 -35.359375 C 14.609375 -35.953125 16.601562 -36.25 18.78125 -36.25 Z M 18.78125 -36.25 "/></g></g></g><g fill="#000000" fill-opacity="1"><g transform="translate(626.36154, 217.044697)"><g><path d="M 12.171875 0 L 4.390625 0 L 4.390625 -47.4375 L 12.171875 -47.4375 Z M 12.171875 0 "/></g></g></g><g fill="#000000" fill-opacity="1"><g transform="translate(432.100991, 306.804876)"><g/></g></g><g fill="#000000" fill-opacity="1"><g transform="translate(447.134068, 306.804876)"><g><path d="M 15.25 -40.5 L 0.328125 -40.5 L 0.328125 -47.4375 L 38.484375 -47.4375 L 38.484375 -40.5 L 23.5625 -40.5 L 23.5625 0 L 15.25 0 Z M 15.25 -40.5 "/></g></g></g><g fill="#000000" fill-opacity="1"><g transform="translate(485.937231, 306.804876)"><g><path d="M 23.625 -27.28125 C 22.3125 -27.414062 21.066406 -27.484375 19.890625 -27.484375 C 18.671875 -27.484375 17.582031 -27.34375 16.625 -27.0625 C 15.664062 -26.78125 14.859375 -26.300781 14.203125 -25.625 C 13.546875 -24.945312 13.039062 -24.019531 12.6875 -22.84375 C 12.34375 -21.664062 12.171875 -20.203125 12.171875 -18.453125 L 12.171875 0 L 4.390625 0 L 4.390625 -35.203125 L 12.046875 -35.203125 L 12.046875 -28.921875 C 13.003906 -30.890625 14.300781 -32.425781 15.9375 -33.53125 C 17.570312 -34.644531 19.457031 -35.222656 21.59375 -35.265625 C 21.894531 -35.265625 22.234375 -35.253906 22.609375 -35.234375 C 22.984375 -35.210938 23.320312 -35.179688 23.625 -35.140625 Z M 23.625 -27.28125 "/></g></g></g><g fill="#000000" fill-opacity="1"><g transform="translate(510.082895, 306.804876)"><g><path d="M 26.171875 -16.5625 C 23.378906 -16.289062 21 -15.976562 19.03125 -15.625 C 17.070312 -15.28125 15.457031 -14.847656 14.1875 -14.328125 C 12.925781 -13.804688 12 -13.1875 11.40625 -12.46875 C 10.820312 -11.75 10.53125 -10.882812 10.53125 -9.875 C 10.53125 -8.351562 11.117188 -7.15625 12.296875 -6.28125 C 13.472656 -5.40625 15.046875 -4.96875 17.015625 -4.96875 C 19.890625 -4.96875 22.132812 -5.765625 23.75 -7.359375 C 25.363281 -8.953125 26.171875 -11.601562 26.171875 -15.3125 Z M 18.78125 -36.25 C 20.957031 -36.25 22.972656 -35.988281 24.828125 -35.46875 C 26.679688 -34.945312 28.285156 -34.09375 29.640625 -32.90625 C 30.992188 -31.726562 32.03125 -30.179688 32.75 -28.265625 C 33.46875 -26.347656 33.804688 -23.992188 33.765625 -21.203125 C 33.765625 -20.765625 33.753906 -20.1875 33.734375 -19.46875 C 33.710938 -18.75 33.703125 -17.972656 33.703125 -17.140625 C 33.703125 -16.316406 33.691406 -15.457031 33.671875 -14.5625 C 33.648438 -13.664062 33.640625 -12.828125 33.640625 -12.046875 C 33.640625 -9.816406 33.722656 -7.617188 33.890625 -5.453125 C 34.066406 -3.296875 34.332031 -1.476562 34.6875 0 L 27.546875 0 C 27.421875 -0.738281 27.300781 -1.457031 27.1875 -2.15625 C 27.082031 -2.851562 26.984375 -3.8125 26.890625 -5.03125 C 25.804688 -3.070312 24.257812 -1.601562 22.25 -0.625 C 20.238281 0.351562 17.925781 0.84375 15.3125 0.84375 C 13.394531 0.84375 11.640625 0.59375 10.046875 0.09375 C 8.453125 -0.40625 7.078125 -1.113281 5.921875 -2.03125 C 4.765625 -2.945312 3.867188 -4.046875 3.234375 -5.328125 C 2.609375 -6.617188 2.296875 -8.070312 2.296875 -9.6875 C 2.296875 -11.863281 2.925781 -13.671875 4.1875 -15.109375 C 5.445312 -16.554688 7.15625 -17.738281 9.3125 -18.65625 C 11.476562 -19.570312 13.988281 -20.269531 16.84375 -20.75 C 19.707031 -21.226562 22.753906 -21.640625 25.984375 -21.984375 L 25.984375 -22.84375 C 25.984375 -24.320312 25.785156 -25.550781 25.390625 -26.53125 C 24.992188 -27.507812 24.457031 -28.296875 23.78125 -28.890625 C 23.101562 -29.484375 22.304688 -29.898438 21.390625 -30.140625 C 20.484375 -30.378906 19.484375 -30.5 18.390625 -30.5 C 16.378906 -30.5 14.695312 -29.972656 13.34375 -28.921875 C 12 -27.878906 11.28125 -26.285156 11.1875 -24.140625 L 3.53125 -24.140625 C 3.664062 -25.929688 4.125 -27.566406 4.90625 -29.046875 C 5.6875 -30.535156 6.742188 -31.8125 8.078125 -32.875 C 9.410156 -33.945312 10.984375 -34.773438 12.796875 -35.359375 C 14.609375 -35.953125 16.601562 -36.25 18.78125 -36.25 Z M 18.78125 -36.25 "/></g></g></g><g fill="#000000" fill-opacity="1"><g transform="translate(547.315604, 306.804876)"><g><path d="M 12.171875 -47.4375 L 12.171875 -39.59375 L 4.390625 -39.59375 L 4.390625 -47.4375 Z M 12.171875 -35.203125 L 12.171875 0 L 4.390625 0 L 4.390625 -35.203125 Z M 12.171875 -35.203125 "/></g></g></g><g fill="#000000" fill-opacity="1"><g transform="translate(563.870769, 306.804876)"><g><path d="M 12.171875 -30.296875 C 13.171875 -32.128906 14.578125 -33.535156 16.390625 -34.515625 C 18.203125 -35.492188 20.351562 -35.984375 22.84375 -35.984375 C 24.976562 -35.984375 26.796875 -35.65625 28.296875 -35 C 29.804688 -34.351562 31.039062 -33.414062 32 -32.1875 C 32.957031 -30.96875 33.664062 -29.507812 34.125 -27.8125 C 34.582031 -26.113281 34.8125 -24.21875 34.8125 -22.125 L 34.8125 0 L 27.03125 0 L 27.03125 -20.21875 C 27.03125 -21.394531 26.960938 -22.550781 26.828125 -23.6875 C 26.703125 -24.820312 26.410156 -25.835938 25.953125 -26.734375 C 25.492188 -27.628906 24.816406 -28.335938 23.921875 -28.859375 C 23.023438 -29.378906 21.832031 -29.640625 20.34375 -29.640625 C 18.863281 -29.640625 17.597656 -29.363281 16.546875 -28.8125 C 15.503906 -28.269531 14.65625 -27.519531 14 -26.5625 C 13.34375 -25.601562 12.875 -24.445312 12.59375 -23.09375 C 12.3125 -21.75 12.171875 -20.289062 12.171875 -18.71875 L 12.171875 0 L 4.390625 0 L 4.390625 -35.203125 L 12.171875 -35.203125 Z M 12.171875 -30.296875 "/></g></g></g><g fill="#000000" fill-opacity="1"><g transform="translate(602.412204, 306.804876)"><g><path d="M 12.171875 -47.4375 L 12.171875 -39.59375 L 4.390625 -39.59375 L 4.390625 -47.4375 Z M 12.171875 -35.203125 L 12.171875 0 L 4.390625 0 L 4.390625 -35.203125 Z M 12.171875 -35.203125 "/></g></g></g><g fill="#000000" fill-opacity="1"><g transform="translate(618.96737, 306.804876)"><g><path d="M 12.171875 -30.296875 C 13.171875 -32.128906 14.578125 -33.535156 16.390625 -34.515625 C 18.203125 -35.492188 20.351562 -35.984375 22.84375 -35.984375 C 24.976562 -35.984375 26.796875 -35.65625 28.296875 -35 C 29.804688 -34.351562 31.039062 -33.414062 32 -32.1875 C 32.957031 -30.96875 33.664062 -29.507812 34.125 -27.8125 C 34.582031 -26.113281 34.8125 -24.21875 34.8125 -22.125 L 34.8125 0 L 27.03125 0 L 27.03125 -20.21875 C 27.03125 -21.394531 26.960938 -22.550781 26.828125 -23.6875 C 26.703125 -24.820312 26.410156 -25.835938 25.953125 -26.734375 C 25.492188 -27.628906 24.816406 -28.335938 23.921875 -28.859375 C 23.023438 -29.378906 21.832031 -29.640625 20.34375 -29.640625 C 18.863281 -29.640625 17.597656 -29.363281 16.546875 -28.8125 C 15.503906 -28.269531 14.65625 -27.519531 14 -26.5625 C 13.34375 -25.601562 12.875 -24.445312 12.59375 -23.09375 C 12.3125 -21.75 12.171875 -20.289062 12.171875 -18.71875 L 12.171875 0 L 4.390625 0 L 4.390625 -35.203125 L 12.171875 -35.203125 Z M 12.171875 -30.296875 "/></g></g></g><g fill="#000000" fill-opacity="1"><g transform="translate(657.508804, 306.804876)"><g><path d="M 27.484375 -35.203125 L 35.265625 -35.203125 L 35.265625 -3.53125 C 35.265625 2.226562 33.835938 6.367188 30.984375 8.890625 C 28.128906 11.421875 23.972656 12.6875 18.515625 12.6875 C 16.597656 12.6875 14.785156 12.488281 13.078125 12.09375 C 11.378906 11.707031 9.863281 11.078125 8.53125 10.203125 C 7.207031 9.335938 6.109375 8.21875 5.234375 6.84375 C 4.359375 5.46875 3.769531 3.816406 3.46875 1.890625 L 11.1875 1.890625 C 11.539062 3.554688 12.296875 4.75 13.453125 5.46875 C 14.609375 6.1875 16.363281 6.546875 18.71875 6.546875 C 20.457031 6.546875 21.894531 6.316406 23.03125 5.859375 C 24.164062 5.398438 25.0625 4.773438 25.71875 3.984375 C 26.375 3.203125 26.832031 2.296875 27.09375 1.265625 C 27.351562 0.242188 27.484375 -0.832031 27.484375 -1.96875 L 27.484375 -6.078125 C 26.429688 -4.335938 25.007812 -2.988281 23.21875 -2.03125 C 21.4375 -1.070312 19.367188 -0.59375 17.015625 -0.59375 C 14.878906 -0.59375 12.882812 -0.992188 11.03125 -1.796875 C 9.175781 -2.609375 7.570312 -3.785156 6.21875 -5.328125 C 4.863281 -6.878906 3.800781 -8.742188 3.03125 -10.921875 C 2.269531 -13.109375 1.890625 -15.578125 1.890625 -18.328125 C 1.890625 -21.066406 2.269531 -23.523438 3.03125 -25.703125 C 3.800781 -27.890625 4.863281 -29.742188 6.21875 -31.265625 C 7.570312 -32.796875 9.175781 -33.960938 11.03125 -34.765625 C 12.882812 -35.578125 14.878906 -35.984375 17.015625 -35.984375 C 19.367188 -35.984375 21.4375 -35.503906 23.21875 -34.546875 C 25.007812 -33.585938 26.429688 -32.238281 27.484375 -30.5 Z M 27.8125 -18.328125 C 27.8125 -20.285156 27.570312 -21.984375 27.09375 -23.421875 C 26.613281 -24.867188 25.96875 -26.0625 25.15625 -27 C 24.351562 -27.9375 23.394531 -28.632812 22.28125 -29.09375 C 21.164062 -29.550781 19.976562 -29.78125 18.71875 -29.78125 C 15.96875 -29.78125 13.828125 -28.753906 12.296875 -26.703125 C 10.773438 -24.648438 10.015625 -21.859375 10.015625 -18.328125 C 10.015625 -14.703125 10.773438 -11.863281 12.296875 -9.8125 C 13.828125 -7.757812 15.96875 -6.734375 18.71875 -6.734375 C 19.976562 -6.734375 21.164062 -6.960938 22.28125 -7.421875 C 23.394531 -7.878906 24.351562 -8.585938 25.15625 -9.546875 C 25.96875 -10.515625 26.613281 -11.726562 27.09375 -13.1875 C 27.570312 -14.644531 27.8125 -16.359375 27.8125 -18.328125 Z M 27.8125 -18.328125 "/></g></g></g><g fill="#000000" fill-opacity="1"><g transform="translate(432.100991, 396.565056)"><g/></g></g><g fill="#000000" fill-opacity="1"><g transform="translate(447.134068, 396.565056)"><g><path d="M 45.28125 -15.765625 C 44.28125 -10.441406 41.988281 -6.34375 38.40625 -3.46875 C 34.832031 -0.59375 30.296875 0.84375 24.796875 0.84375 C 21.304688 0.84375 18.207031 0.253906 15.5 -0.921875 C 12.800781 -2.097656 10.515625 -3.765625 8.640625 -5.921875 C 6.765625 -8.078125 5.332031 -10.679688 4.34375 -13.734375 C 3.363281 -16.796875 2.875 -20.179688 2.875 -23.890625 C 2.875 -27.597656 3.382812 -30.957031 4.40625 -33.96875 C 5.4375 -36.976562 6.921875 -39.550781 8.859375 -41.6875 C 10.804688 -43.820312 13.15625 -45.457031 15.90625 -46.59375 C 18.65625 -47.726562 21.75 -48.296875 25.1875 -48.296875 C 30.46875 -48.296875 34.875 -46.851562 38.40625 -43.96875 C 41.945312 -41.09375 44.195312 -36.992188 45.15625 -31.671875 L 37.171875 -31.671875 C 36.429688 -34.898438 34.976562 -37.34375 32.8125 -39 C 30.65625 -40.65625 28.03125 -41.484375 24.9375 -41.484375 C 23.0625 -41.484375 21.300781 -41.101562 19.65625 -40.34375 C 18.019531 -39.582031 16.59375 -38.457031 15.375 -36.96875 C 14.15625 -35.488281 13.195312 -33.65625 12.5 -31.46875 C 11.800781 -29.289062 11.453125 -26.765625 11.453125 -23.890625 C 11.453125 -21.003906 11.789062 -18.445312 12.46875 -16.21875 C 13.144531 -14 14.09375 -12.125 15.3125 -10.59375 C 16.53125 -9.070312 17.945312 -7.914062 19.5625 -7.125 C 21.175781 -6.34375 22.941406 -5.953125 24.859375 -5.953125 C 28.085938 -5.953125 30.78125 -6.769531 32.9375 -8.40625 C 35.101562 -10.039062 36.554688 -12.492188 37.296875 -15.765625 Z M 45.28125 -15.765625 "/></g></g></g><g fill="#000000" fill-opacity="1"><g transform="translate(494.640126, 396.565056)"><g><path d="M 19.171875 -5.5 C 20.484375 -5.5 21.679688 -5.75 22.765625 -6.25 C 23.859375 -6.75 24.816406 -7.488281 25.640625 -8.46875 C 26.472656 -9.457031 27.117188 -10.703125 27.578125 -12.203125 C 28.035156 -13.710938 28.265625 -15.488281 28.265625 -17.53125 C 28.265625 -19.539062 28.035156 -21.304688 27.578125 -22.828125 C 27.117188 -24.359375 26.472656 -25.625 25.640625 -26.625 C 24.816406 -27.632812 23.859375 -28.390625 22.765625 -28.890625 C 21.679688 -29.390625 20.484375 -29.640625 19.171875 -29.640625 C 17.859375 -29.640625 16.65625 -29.390625 15.5625 -28.890625 C 14.476562 -28.390625 13.519531 -27.632812 12.6875 -26.625 C 11.863281 -25.625 11.222656 -24.359375 10.765625 -22.828125 C 10.304688 -21.304688 10.078125 -19.539062 10.078125 -17.53125 C 10.078125 -15.488281 10.304688 -13.710938 10.765625 -12.203125 C 11.222656 -10.703125 11.863281 -9.457031 12.6875 -8.46875 C 13.519531 -7.488281 14.476562 -6.75 15.5625 -6.25 C 16.65625 -5.75 17.859375 -5.5 19.171875 -5.5 Z M 19.171875 -35.984375 C 21.398438 -35.984375 23.535156 -35.613281 25.578125 -34.875 C 27.628906 -34.132812 29.453125 -33.007812 31.046875 -31.5 C 32.640625 -30 33.914062 -28.09375 34.875 -25.78125 C 35.832031 -23.46875 36.3125 -20.71875 36.3125 -17.53125 C 36.3125 -14.351562 35.832031 -11.609375 34.875 -9.296875 C 33.914062 -6.984375 32.640625 -5.070312 31.046875 -3.5625 C 29.453125 -2.0625 27.628906 -0.953125 25.578125 -0.234375 C 23.535156 0.484375 21.398438 0.84375 19.171875 0.84375 C 16.941406 0.84375 14.800781 0.484375 12.75 -0.234375 C 10.707031 -0.953125 8.890625 -2.0625 7.296875 -3.5625 C 5.703125 -5.070312 4.425781 -6.984375 3.46875 -9.296875 C 2.507812 -11.609375 2.03125 -14.351562 2.03125 -17.53125 C 2.03125 -20.71875 2.507812 -23.46875 3.46875 -25.78125 C 4.425781 -28.09375 5.703125 -30 7.296875 -31.5 C 8.890625 -33.007812 10.707031 -34.132812 12.75 -34.875 C 14.800781 -35.613281 16.941406 -35.984375 19.171875 -35.984375 Z M 19.171875 -35.984375 "/></g></g></g><g fill="#000000" fill-opacity="1"><g transform="translate(532.985232, 396.565056)"><g><path d="M 12.171875 0 L 4.390625 0 L 4.390625 -35.203125 L 12.171875 -35.203125 L 12.171875 -30.296875 C 13.171875 -32.128906 14.53125 -33.535156 16.25 -34.515625 C 17.976562 -35.492188 20.019531 -35.984375 22.375 -35.984375 C 25.125 -35.984375 27.316406 -35.4375 28.953125 -34.34375 C 30.585938 -33.257812 31.820312 -31.738281 32.65625 -29.78125 C 34.175781 -32 35.914062 -33.585938 37.875 -34.546875 C 39.84375 -35.503906 41.921875 -35.984375 44.109375 -35.984375 C 46.203125 -35.984375 47.976562 -35.65625 49.4375 -35 C 50.894531 -34.351562 52.082031 -33.414062 53 -32.1875 C 53.914062 -30.96875 54.582031 -29.507812 55 -27.8125 C 55.414062 -26.113281 55.625 -24.21875 55.625 -22.125 L 55.625 0 L 47.828125 0 L 47.828125 -20.21875 C 47.828125 -21.394531 47.769531 -22.550781 47.65625 -23.6875 C 47.550781 -24.820312 47.289062 -25.835938 46.875 -26.734375 C 46.46875 -27.628906 45.847656 -28.335938 45.015625 -28.859375 C 44.191406 -29.378906 43.0625 -29.640625 41.625 -29.640625 C 40.175781 -29.640625 38.960938 -29.363281 37.984375 -28.8125 C 37.003906 -28.269531 36.207031 -27.519531 35.59375 -26.5625 C 34.988281 -25.601562 34.550781 -24.445312 34.28125 -23.09375 C 34.019531 -21.75 33.890625 -20.289062 33.890625 -18.71875 L 33.890625 0 L 26.109375 0 L 26.109375 -20.21875 C 26.109375 -21.394531 26.050781 -22.550781 25.9375 -23.6875 C 25.832031 -24.820312 25.570312 -25.835938 25.15625 -26.734375 C 24.75 -27.628906 24.128906 -28.335938 23.296875 -28.859375 C 22.460938 -29.378906 21.328125 -29.640625 19.890625 -29.640625 C 18.453125 -29.640625 17.238281 -29.363281 16.25 -28.8125 C 15.269531 -28.269531 14.472656 -27.519531 13.859375 -26.5625 C 13.253906 -25.601562 12.820312 -24.445312 12.5625 -23.09375 C 12.300781 -21.75 12.171875 -20.289062 12.171875 -18.71875 Z M 12.171875 0 "/></g></g></g><g fill="#000000" fill-opacity="1"><g transform="translate(592.335094, 396.565056)"><g><path d="M 11.84375 -17.609375 C 11.84375 -15.554688 12.070312 -13.773438 12.53125 -12.265625 C 12.988281 -10.765625 13.628906 -9.507812 14.453125 -8.5 C 15.285156 -7.5 16.257812 -6.75 17.375 -6.25 C 18.488281 -5.75 19.675781 -5.5 20.9375 -5.5 C 23.6875 -5.5 25.820312 -6.578125 27.34375 -8.734375 C 28.875 -10.890625 29.640625 -13.847656 29.640625 -17.609375 C 29.640625 -21.316406 28.875 -24.25 27.34375 -26.40625 C 25.820312 -28.5625 23.6875 -29.640625 20.9375 -29.640625 C 19.675781 -29.640625 18.488281 -29.390625 17.375 -28.890625 C 16.257812 -28.390625 15.285156 -27.644531 14.453125 -26.65625 C 13.628906 -25.675781 12.988281 -24.421875 12.53125 -22.890625 C 12.070312 -21.367188 11.84375 -19.609375 11.84375 -17.609375 Z M 12.171875 -35.203125 L 12.171875 -30.5 C 13.210938 -32.238281 14.628906 -33.585938 16.421875 -34.546875 C 18.210938 -35.503906 20.285156 -35.984375 22.640625 -35.984375 C 24.773438 -35.984375 26.769531 -35.554688 28.625 -34.703125 C 30.476562 -33.859375 32.082031 -32.628906 33.4375 -31.015625 C 34.789062 -29.398438 35.847656 -27.457031 36.609375 -25.1875 C 37.367188 -22.925781 37.75 -20.398438 37.75 -17.609375 C 37.75 -14.765625 37.367188 -12.207031 36.609375 -9.9375 C 35.847656 -7.675781 34.789062 -5.738281 33.4375 -4.125 C 32.082031 -2.507812 30.476562 -1.273438 28.625 -0.421875 C 26.769531 0.421875 24.773438 0.84375 22.640625 0.84375 C 20.285156 0.84375 18.210938 0.363281 16.421875 -0.59375 C 14.628906 -1.550781 13.210938 -2.898438 12.171875 -4.640625 L 12.171875 11.453125 L 4.390625 11.453125 L 4.390625 -35.203125 Z M 12.171875 -35.203125 "/></g></g></g><g fill="#000000" fill-opacity="1"><g transform="translate(632.054369, 396.565056)"><g><path d="M 26.171875 -16.5625 C 23.378906 -16.289062 21 -15.976562 19.03125 -15.625 C 17.070312 -15.28125 15.457031 -14.847656 14.1875 -14.328125 C 12.925781 -13.804688 12 -13.1875 11.40625 -12.46875 C 10.820312 -11.75 10.53125 -10.882812 10.53125 -9.875 C 10.53125 -8.351562 11.117188 -7.15625 12.296875 -6.28125 C 13.472656 -5.40625 15.046875 -4.96875 17.015625 -4.96875 C 19.890625 -4.96875 22.132812 -5.765625 23.75 -7.359375 C 25.363281 -8.953125 26.171875 -11.601562 26.171875 -15.3125 Z M 18.78125 -36.25 C 20.957031 -36.25 22.972656 -35.988281 24.828125 -35.46875 C 26.679688 -34.945312 28.285156 -34.09375 29.640625 -32.90625 C 30.992188 -31.726562 32.03125 -30.179688 32.75 -28.265625 C 33.46875 -26.347656 33.804688 -23.992188 33.765625 -21.203125 C 33.765625 -20.765625 33.753906 -20.1875 33.734375 -19.46875 C 33.710938 -18.75 33.703125 -17.972656 33.703125 -17.140625 C 33.703125 -16.316406 33.691406 -15.457031 33.671875 -14.5625 C 33.648438 -13.664062 33.640625 -12.828125 33.640625 -12.046875 C 33.640625 -9.816406 33.722656 -7.617188 33.890625 -5.453125 C 34.066406 -3.296875 34.332031 -1.476562 34.6875 0 L 27.546875 0 C 27.421875 -0.738281 27.300781 -1.457031 27.1875 -2.15625 C 27.082031 -2.851562 26.984375 -3.8125 26.890625 -5.03125 C 25.804688 -3.070312 24.257812 -1.601562 22.25 -0.625 C 20.238281 0.351562 17.925781 0.84375 15.3125 0.84375 C 13.394531 0.84375 11.640625 0.59375 10.046875 0.09375 C 8.453125 -0.40625 7.078125 -1.113281 5.921875 -2.03125 C 4.765625 -2.945312 3.867188 -4.046875 3.234375 -5.328125 C 2.609375 -6.617188 2.296875 -8.070312 2.296875 -9.6875 C 2.296875 -11.863281 2.925781 -13.671875 4.1875 -15.109375 C 5.445312 -16.554688 7.15625 -17.738281 9.3125 -18.65625 C 11.476562 -19.570312 13.988281 -20.269531 16.84375 -20.75 C 19.707031 -21.226562 22.753906 -21.640625 25.984375 -21.984375 L 25.984375 -22.84375 C 25.984375 -24.320312 25.785156 -25.550781 25.390625 -26.53125 C 24.992188 -27.507812 24.457031 -28.296875 23.78125 -28.890625 C 23.101562 -29.484375 22.304688 -29.898438 21.390625 -30.140625 C 20.484375 -30.378906 19.484375 -30.5 18.390625 -30.5 C 16.378906 -30.5 14.695312 -29.972656 13.34375 -28.921875 C 12 -27.878906 11.28125 -26.285156 11.1875 -24.140625 L 3.53125 -24.140625 C 3.664062 -25.929688 4.125 -27.566406 4.90625 -29.046875 C 5.6875 -30.535156 6.742188 -31.8125 8.078125 -32.875 C 9.410156 -33.945312 10.984375 -34.773438 12.796875 -35.359375 C 14.609375 -35.953125 16.601562 -36.25 18.78125 -36.25 Z M 18.78125 -36.25 "/></g></g></g><g fill="#000000" fill-opacity="1"><g transform="translate(669.287078, 396.565056)"><g><path d="M 12.171875 -30.296875 C 13.171875 -32.128906 14.578125 -33.535156 16.390625 -34.515625 C 18.203125 -35.492188 20.351562 -35.984375 22.84375 -35.984375 C 24.976562 -35.984375 26.796875 -35.65625 28.296875 -35 C 29.804688 -34.351562 31.039062 -33.414062 32 -32.1875 C 32.957031 -30.96875 33.664062 -29.507812 34.125 -27.8125 C 34.582031 -26.113281 34.8125 -24.21875 34.8125 -22.125 L 34.8125 0 L 27.03125 0 L 27.03125 -20.21875 C 27.03125 -21.394531 26.960938 -22.550781 26.828125 -23.6875 C 26.703125 -24.820312 26.410156 -25.835938 25.953125 -26.734375 C 25.492188 -27.628906 24.816406 -28.335938 23.921875 -28.859375 C 23.023438 -29.378906 21.832031 -29.640625 20.34375 -29.640625 C 18.863281 -29.640625 17.597656 -29.363281 16.546875 -28.8125 C 15.503906 -28.269531 14.65625 -27.519531 14 -26.5625 C 13.34375 -25.601562 12.875 -24.445312 12.59375 -23.09375 C 12.3125 -21.75 12.171875 -20.289062 12.171875 -18.71875 L 12.171875 0 L 4.390625 0 L 4.390625 -35.203125 L 12.171875 -35.203125 Z M 12.171875 -30.296875 "/></g></g></g><g fill="#000000" fill-opacity="1"><g transform="translate(707.828512, 396.565056)"><g><path d="M 12.171875 -47.4375 L 12.171875 -39.59375 L 4.390625 -39.59375 L 4.390625 -47.4375 Z M 12.171875 -35.203125 L 12.171875 0 L 4.390625 0 L 4.390625 -35.203125 Z M 12.171875 -35.203125 "/></g></g></g><g fill="#000000" fill-opacity="1"><g transform="translate(724.383678, 396.565056)"><g><path d="M 19.171875 -5.5 C 20.484375 -5.5 21.679688 -5.75 22.765625 -6.25 C 23.859375 -6.75 24.816406 -7.488281 25.640625 -8.46875 C 26.472656 -9.457031 27.117188 -10.703125 27.578125 -12.203125 C 28.035156 -13.710938 28.265625 -15.488281 28.265625 -17.53125 C 28.265625 -19.539062 28.035156 -21.304688 27.578125 -22.828125 C 27.117188 -24.359375 26.472656 -25.625 25.640625 -26.625 C 24.816406 -27.632812 23.859375 -28.390625 22.765625 -28.890625 C 21.679688 -29.390625 20.484375 -29.640625 19.171875 -29.640625 C 17.859375 -29.640625 16.65625 -29.390625 15.5625 -28.890625 C 14.476562 -28.390625 13.519531 -27.632812 12.6875 -26.625 C 11.863281 -25.625 11.222656 -24.359375 10.765625 -22.828125 C 10.304688 -21.304688 10.078125 -19.539062 10.078125 -17.53125 C 10.078125 -15.488281 10.304688 -13.710938 10.765625 -12.203125 C 11.222656 -10.703125 11.863281 -9.457031 12.6875 -8.46875 C 13.519531 -7.488281 14.476562 -6.75 15.5625 -6.25 C 16.65625 -5.75 17.859375 -5.5 19.171875 -5.5 Z M 19.171875 -35.984375 C 21.398438 -35.984375 23.535156 -35.613281 25.578125 -34.875 C 27.628906 -34.132812 29.453125 -33.007812 31.046875 -31.5 C 32.640625 -30 33.914062 -28.09375 34.875 -25.78125 C 35.832031 -23.46875 36.3125 -20.71875 36.3125 -17.53125 C 36.3125 -14.351562 35.832031 -11.609375 34.875 -9.296875 C 33.914062 -6.984375 32.640625 -5.070312 31.046875 -3.5625 C 29.453125 -2.0625 27.628906 -0.953125 25.578125 -0.234375 C 23.535156 0.484375 21.398438 0.84375 19.171875 0.84375 C 16.941406 0.84375 14.800781 0.484375 12.75 -0.234375 C 10.707031 -0.953125 8.890625 -2.0625 7.296875 -3.5625 C 5.703125 -5.070312 4.425781 -6.984375 3.46875 -9.296875 C 2.507812 -11.609375 2.03125 -14.351562 2.03125 -17.53125 C 2.03125 -20.71875 2.507812 -23.46875 3.46875 -25.78125 C 4.425781 -28.09375 5.703125 -30 7.296875 -31.5 C 8.890625 -33.007812 10.707031 -34.132812 12.75 -34.875 C 14.800781 -35.613281 16.941406 -35.984375 19.171875 -35.984375 Z M 19.171875 -35.984375 "/></g></g></g><g fill="#000000" fill-opacity="1"><g transform="translate(762.728784, 396.565056)"><g><path d="M 12.171875 -30.296875 C 13.171875 -32.128906 14.578125 -33.535156 16.390625 -34.515625 C 18.203125 -35.492188 20.351562 -35.984375 22.84375 -35.984375 C 24.976562 -35.984375 26.796875 -35.65625 28.296875 -35 C 29.804688 -34.351562 31.039062 -33.414062 32 -32.1875 C 32.957031 -30.96875 33.664062 -29.507812 34.125 -27.8125 C 34.582031 -26.113281 34.8125 -24.21875 34.8125 -22.125 L 34.8125 0 L 27.03125 0 L 27.03125 -20.21875 C 27.03125 -21.394531 26.960938 -22.550781 26.828125 -23.6875 C 26.703125 -24.820312 26.410156 -25.835938 25.953125 -26.734375 C 25.492188 -27.628906 24.816406 -28.335938 23.921875 -28.859375 C 23.023438 -29.378906 21.832031 -29.640625 20.34375 -29.640625 C 18.863281 -29.640625 17.597656 -29.363281 16.546875 -28.8125 C 15.503906 -28.269531 14.65625 -27.519531 14 -26.5625 C 13.34375 -25.601562 12.875 -24.445312 12.59375 -23.09375 C 12.3125 -21.75 12.171875 -20.289062 12.171875 -18.71875 L 12.171875 0 L 4.390625 0 L 4.390625 -35.203125 L 12.171875 -35.203125 Z M 12.171875 -30.296875 "/></g></g></g></svg>